<svg version="1.1" xmlns="http://www.w3.org/2000/svg" xmlns:xlink="http://www.w3.org/1999/xlink" width="40" height="40" viewBox="0 0 40 40">
<path id="icon-sensor" d="M36.849,10.222 C36.849,10.222 34.273,12.798 34.273,12.798 C35.369,14.964 36.000,17.406 36.000,20.000 C36.000,28.837 28.837,36.000 20.000,36.000 C17.406,36.000 14.964,35.369 12.798,34.273 C12.798,34.273 10.222,36.849 10.222,36.849 C9.441,37.630 8.174,37.630 7.393,36.849 C7.393,36.849 3.151,32.606 3.151,32.606 C2.370,31.825 2.370,30.559 3.151,29.778 C3.151,29.778 5.727,27.202 5.727,27.202 C4.631,25.035 4.000,22.594 4.000,20.000 C4.000,11.163 11.163,4.000 20.000,4.000 C22.594,4.000 25.035,4.631 27.202,5.727 C27.202,5.727 29.778,3.151 29.778,3.151 C30.559,2.370 31.825,2.370 32.607,3.151 C32.607,3.151 36.849,7.393 36.849,7.393 C37.630,8.174 37.630,9.441 36.849,10.222 zM5.879,30.879 C5.488,31.269 5.488,31.902 5.879,32.293 C5.879,32.293 7.707,34.121 7.707,34.121 C8.098,34.512 8.731,34.512 9.121,34.121 C9.512,33.731 9.512,33.098 9.121,32.707 C9.121,32.707 7.293,30.879 7.293,30.879 C6.902,30.488 6.269,30.488 5.879,30.879 zM20.000,7.000 C12.820,7.000 7.000,12.820 7.000,20.000 C7.000,27.180 12.820,33.000 20.000,33.000 C27.180,33.000 33.000,27.180 33.000,20.000 C33.000,12.820 27.180,7.000 20.000,7.000 zM34.121,7.707 C34.121,7.707 32.293,5.879 32.293,5.879 C31.902,5.488 31.269,5.488 30.879,5.879 C30.488,6.269 30.488,6.902 30.879,7.293 C30.879,7.293 32.707,9.121 32.707,9.121 C33.098,9.512 33.731,9.512 34.121,9.121 C34.512,8.731 34.512,8.098 34.121,7.707 zM20.000,31.000 C13.925,31.000 9.000,26.075 9.000,20.000 C9.000,13.925 13.925,9.000 20.000,9.000 C26.075,9.000 31.000,13.925 31.000,20.000 C31.000,26.075 26.075,31.000 20.000,31.000 zM20.000,23.000 L23.000,20.000 L17.000,17.000 L20.000,23.000 zM20.000,11.000 C15.029,11.000 11.000,15.029 11.000,20.000 C11.000,22.730 12.220,25.171 14.139,26.821 C11.244,23.683 11.297,18.804 14.343,15.757 C17.205,12.895 21.696,12.655 24.831,15.036 C25.118,15.255 26.364,13.636 26.364,13.636 C24.735,12.007 22.485,11.000 20.000,11.000 z" fill="#F14848" />
</svg>
