<svg version="1.1" xmlns="http://www.w3.org/2000/svg" xmlns:xlink="http://www.w3.org/1999/xlink" width="40" height="40" viewBox="0 0 40 40">
<path id="icon-repair" d="M20.000,38.000 C10.059,38.000 2.000,29.941 2.000,20.000 C2.000,10.059 10.059,2.000 20.000,2.000 C29.941,2.000 38.000,10.059 38.000,20.000 C38.000,29.941 29.941,38.000 20.000,38.000 zM20.000,8.000 C13.373,8.000 8.000,13.373 8.000,20.000 C8.000,26.627 13.373,32.000 20.000,32.000 C26.627,32.000 32.000,26.627 32.000,20.000 C32.000,13.373 26.627,8.000 20.000,8.000 zM20.000,30.000 C14.477,30.000 10.000,25.523 10.000,20.000 C10.000,14.477 14.477,10.000 20.000,10.000 C25.523,10.000 30.000,14.477 30.000,20.000 C30.000,25.523 25.523,30.000 20.000,30.000 zM23.000,27.413 C23.692,27.133 24.331,26.752 24.911,26.299 C24.911,26.299 23.000,25.196 23.000,25.196 C23.000,25.196 23.000,27.413 23.000,27.413 zM19.000,28.000 L21.000,28.000 C21.000,28.000 21.000,24.899 21.000,24.899 C20.677,24.965 20.342,25.000 20.000,25.000 C19.657,25.000 19.323,24.965 19.000,24.899 C19.000,24.899 19.000,28.000 19.000,28.000 zM13.572,24.866 C13.572,24.866 16.275,23.305 16.275,23.305 C15.831,22.806 15.493,22.220 15.277,21.572 C15.277,21.572 12.572,23.134 12.572,23.134 L13.572,24.866 zM12.000,20.000 C12.000,20.376 12.035,20.743 12.085,21.106 C12.085,21.106 14.000,20.000 14.000,20.000 C14.000,20.000 12.085,18.894 12.085,18.894 C12.035,19.256 12.000,19.624 12.000,20.000 zM12.572,16.866 C12.572,16.866 15.277,18.428 15.277,18.428 C15.493,17.780 15.831,17.194 16.275,16.694 C16.275,16.694 13.572,15.134 13.572,15.134 L12.572,16.866 zM17.000,12.587 C16.308,12.867 15.669,13.248 15.089,13.700 C15.089,13.700 17.000,14.804 17.000,14.804 C17.000,14.804 17.000,12.587 17.000,12.587 zM17.000,25.196 C17.000,25.196 15.089,26.299 15.089,26.299 C15.669,26.752 16.308,27.133 17.000,27.413 C17.000,27.413 17.000,25.196 17.000,25.196 zM21.000,12.000 L19.000,12.000 C19.000,12.000 19.000,15.101 19.000,15.101 C19.323,15.035 19.657,15.000 20.000,15.000 C20.342,15.000 20.677,15.035 21.000,15.101 C21.000,15.101 21.000,12.000 21.000,12.000 zM20.000,18.000 C18.895,18.000 18.000,18.895 18.000,20.000 C18.000,21.105 18.895,22.000 20.000,22.000 C21.105,22.000 22.000,21.105 22.000,20.000 C22.000,18.895 21.105,18.000 20.000,18.000 zM23.000,12.587 C23.000,12.587 23.000,14.804 23.000,14.804 C23.000,14.804 24.911,13.700 24.911,13.700 C24.331,13.248 23.692,12.867 23.000,12.587 zM26.428,15.134 C26.428,15.134 23.725,16.694 23.725,16.694 C24.169,17.194 24.507,17.780 24.723,18.428 C24.723,18.428 27.428,16.866 27.428,16.866 L26.428,15.134 zM28.000,20.000 C28.000,19.624 27.965,19.256 27.915,18.894 C27.915,18.894 26.000,20.000 26.000,20.000 C26.000,20.000 27.915,21.106 27.915,21.106 C27.965,20.743 28.000,20.376 28.000,20.000 zM24.723,21.572 C24.507,22.220 24.169,22.806 23.725,23.305 C23.725,23.305 26.428,24.866 26.428,24.866 L27.428,23.134 C27.428,23.134 24.723,21.572 24.723,21.572 z" fill="#F14848" />
</svg>
