<svg version="1.1" xmlns="http://www.w3.org/2000/svg" xmlns:xlink="http://www.w3.org/1999/xlink" width="40" height="40" viewBox="0 0 40 40">
<path id="icon-gbe" d="M38.000,11.000 L38.000,13.000 L38.000,17.000 L38.000,23.000 L38.000,27.000 L38.000,30.000 C38.000,30.000 38.000,33.000 38.000,33.000 C38.000,33.000 38.000,33.000 38.000,33.000 C38.000,35.761 35.761,38.000 33.000,38.000 C33.000,38.000 33.000,38.000 33.000,38.000 C33.000,38.000 2.000,38.000 2.000,38.000 L2.000,36.000 C2.000,36.000 33.000,36.000 33.000,36.000 C33.000,36.000 33.000,36.000 33.000,36.000 C33.000,36.000 33.000,36.102 33.000,36.102 C33.114,36.069 33.200,36.009 33.308,35.969 C34.715,35.823 35.824,34.715 35.969,33.308 C36.007,33.208 36.029,33.102 36.062,33.000 C36.062,33.000 36.000,33.000 36.000,33.000 C36.000,31.895 35.105,31.000 34.000,31.000 C34.000,31.000 34.000,29.000 34.000,29.000 C35.105,29.000 36.000,28.105 36.000,27.000 C36.000,27.000 36.000,23.000 36.000,23.000 C36.000,21.895 35.105,21.000 34.000,21.000 C34.000,21.000 34.000,19.000 34.000,19.000 C35.105,19.000 36.000,18.105 36.000,17.000 C36.000,17.000 36.000,17.000 36.000,17.000 C36.000,17.000 36.000,17.000 36.000,17.000 C36.000,17.000 36.000,13.000 36.000,13.000 C36.000,11.895 35.105,11.000 34.000,11.000 C34.000,11.000 34.000,9.000 34.000,9.000 C35.105,9.000 36.000,8.104 36.000,7.000 C36.000,7.000 36.000,7.000 36.000,7.000 C36.000,5.401 34.746,4.107 33.169,4.017 C33.110,3.989 33.061,3.945 33.000,3.920 C33.000,3.920 33.000,4.000 33.000,4.000 C33.000,4.000 29.159,4.000 29.159,4.000 C29.087,4.028 29.020,4.039 28.948,4.070 C28.967,4.044 28.993,4.025 29.012,4.000 C29.012,4.000 2.000,4.000 2.000,4.000 L2.000,2.000 L33.000,2.000 C33.000,2.000 33.000,2.000 33.000,2.000 C33.000,2.000 33.000,2.000 33.000,2.000 C35.761,2.000 38.000,4.239 38.000,7.000 C38.000,7.000 38.000,7.000 38.000,7.000 C38.000,7.000 38.000,7.000 38.000,7.000 C38.000,7.000 38.000,7.000 38.000,7.000 C38.000,7.000 38.000,7.000 38.000,7.000 C38.000,7.000 38.000,11.000 38.000,11.000 zM6.000,6.000 C6.000,6.000 28.000,6.000 28.000,6.000 C30.209,6.000 32.000,7.791 32.000,10.000 C32.000,12.209 30.209,14.000 28.000,14.000 C28.000,14.000 6.000,14.000 6.000,14.000 C3.791,14.000 2.000,12.209 2.000,10.000 C2.000,7.791 3.791,6.000 6.000,6.000 zM6.000,12.000 C7.104,12.000 8.000,11.105 8.000,10.000 C8.000,8.895 7.104,8.000 6.000,8.000 C4.895,8.000 4.000,8.895 4.000,10.000 C4.000,11.105 4.895,12.000 6.000,12.000 zM6.000,9.000 C6.552,9.000 7.000,9.448 7.000,10.000 C7.000,10.552 6.552,11.000 6.000,11.000 C5.448,11.000 5.000,10.552 5.000,10.000 C5.000,9.448 5.448,9.000 6.000,9.000 zM6.000,26.000 C6.000,26.000 28.000,26.000 28.000,26.000 C30.209,26.000 32.000,27.791 32.000,30.000 C32.000,32.209 30.209,34.000 28.000,34.000 C28.000,34.000 6.000,34.000 6.000,34.000 C3.791,34.000 2.000,32.209 2.000,30.000 C2.000,27.791 3.791,26.000 6.000,26.000 zM6.000,32.000 C7.104,32.000 8.000,31.105 8.000,30.000 C8.000,28.895 7.104,28.000 6.000,28.000 C4.895,28.000 4.000,28.895 4.000,30.000 C4.000,31.105 4.895,32.000 6.000,32.000 zM6.000,29.000 C6.552,29.000 7.000,29.448 7.000,30.000 C7.000,30.552 6.552,31.000 6.000,31.000 C5.448,31.000 5.000,30.552 5.000,30.000 C5.000,29.448 5.448,29.000 6.000,29.000 zM6.000,16.000 C6.000,16.000 28.000,16.000 28.000,16.000 C30.209,16.000 32.000,17.791 32.000,20.000 C32.000,22.209 30.209,24.000 28.000,24.000 C28.000,24.000 6.000,24.000 6.000,24.000 C3.791,24.000 2.000,22.209 2.000,20.000 C2.000,17.791 3.791,16.000 6.000,16.000 zM6.000,22.000 C7.104,22.000 8.000,21.105 8.000,20.000 C8.000,18.895 7.104,18.000 6.000,18.000 C4.895,18.000 4.000,18.895 4.000,20.000 C4.000,21.105 4.895,22.000 6.000,22.000 zM6.000,19.000 C6.552,19.000 7.000,19.448 7.000,20.000 C7.000,20.552 6.552,21.000 6.000,21.000 C5.448,21.000 5.000,20.552 5.000,20.000 C5.000,19.448 5.448,19.000 6.000,19.000 z" fill="#F14848" />
</svg>
