<svg version="1.1" xmlns="http://www.w3.org/2000/svg" xmlns:xlink="http://www.w3.org/1999/xlink" width="40" height="40" viewBox="0 0 40 40">
<path id="icon-reducer" d="M37.000,22.000 C36.957,22.000 36.917,21.990 36.874,21.987 C36.500,25.196 35.222,28.122 33.318,30.529 C33.354,30.560 33.400,30.572 33.435,30.606 C34.216,31.388 34.216,32.654 33.435,33.435 C32.654,34.216 31.388,34.216 30.607,33.435 C30.572,33.400 30.560,33.354 30.529,33.318 C28.122,35.222 25.196,36.500 21.987,36.874 C21.990,36.917 22.000,36.957 22.000,37.000 C22.000,38.105 21.105,39.000 20.000,39.000 C18.895,39.000 18.000,38.105 18.000,37.000 C18.000,36.957 18.010,36.917 18.013,36.874 C14.804,36.500 11.878,35.222 9.471,33.318 C9.440,33.354 9.428,33.400 9.393,33.435 C8.612,34.216 7.346,34.216 6.565,33.435 C5.784,32.654 5.784,31.388 6.565,30.606 C6.600,30.572 6.646,30.560 6.682,30.529 C4.778,28.122 3.500,25.196 3.126,21.987 C3.083,21.990 3.043,22.000 3.000,22.000 C1.895,22.000 1.000,21.105 1.000,20.000 C1.000,18.895 1.895,18.000 3.000,18.000 C3.043,18.000 3.083,18.010 3.126,18.013 C3.500,14.804 4.778,11.878 6.682,9.471 C6.646,9.440 6.600,9.428 6.565,9.393 C5.784,8.612 5.784,7.346 6.565,6.565 C7.346,5.784 8.612,5.784 9.393,6.565 C9.428,6.599 9.440,6.646 9.471,6.682 C11.878,4.778 14.804,3.500 18.013,3.126 C18.010,3.083 18.000,3.043 18.000,3.000 C18.000,1.895 18.895,1.000 20.000,1.000 C21.105,1.000 22.000,1.895 22.000,3.000 C22.000,3.043 21.990,3.083 21.987,3.126 C25.196,3.500 28.121,4.777 30.527,6.681 C30.894,6.254 31.431,5.978 32.039,5.978 C33.143,5.978 34.039,6.873 34.039,7.978 C33.054,7.978 32.517,7.978 32.005,7.978 C32.012,7.985 32.018,7.993 32.025,8.000 C32.025,8.000 29.000,8.000 29.000,8.000 C27.895,8.000 27.000,8.895 27.000,10.000 C27.000,10.000 27.000,10.998 27.000,10.998 C23.680,10.994 13.000,10.979 9.293,10.979 C7.238,13.416 6.000,16.563 6.000,20.000 C6.000,23.486 7.274,26.674 9.382,29.125 C20.303,29.125 18.288,28.963 30.755,28.963 C32.781,26.534 34.000,23.409 34.000,20.000 C34.000,20.000 35.000,20.000 35.000,20.000 C36.104,20.000 37.000,19.105 37.000,18.000 C37.000,18.000 37.000,18.000 37.000,18.000 C38.105,18.000 39.000,18.895 39.000,20.000 C39.000,21.105 38.105,22.000 37.000,22.000 zM32.000,20.000 C32.000,22.599 31.174,25.005 29.770,26.969 C25.375,26.969 24.028,27.000 20.000,27.000 C15.994,27.000 14.915,27.019 10.266,27.019 C8.840,25.046 8.000,22.621 8.000,20.000 C8.000,17.384 8.837,14.963 10.258,12.992 C14.374,12.992 18.988,13.000 23.000,13.000 C24.047,13.000 26.031,13.007 26.031,13.007 L27.000,13.013 C27.000,13.013 27.000,18.000 27.000,18.000 C27.000,19.105 27.895,20.000 29.000,20.000 C29.000,20.000 32.000,20.000 32.000,20.000 zM20.000,16.000 C17.791,16.000 16.000,17.791 16.000,20.000 C16.000,22.209 17.791,24.000 20.000,24.000 C22.209,24.000 24.000,22.209 24.000,20.000 C24.000,17.791 22.209,16.000 20.000,16.000 zM20.000,22.000 C18.895,22.000 18.000,21.105 18.000,20.000 C18.000,18.895 18.895,18.000 20.000,18.000 C21.105,18.000 22.000,18.895 22.000,20.000 C22.000,21.105 21.105,22.000 20.000,22.000 zM33.000,18.000 C33.000,18.000 31.000,18.000 31.000,18.000 C29.895,18.000 29.000,17.105 29.000,16.000 C29.000,16.000 29.000,12.000 29.000,12.000 C29.000,10.895 29.895,10.000 31.000,10.000 C31.000,10.000 33.000,10.000 33.000,10.000 C34.105,10.000 35.000,10.895 35.000,12.000 C35.000,12.000 35.000,16.000 35.000,16.000 C35.000,17.105 34.105,18.000 33.000,18.000 z" fill="#F14848" />
</svg>
